<svg xmlns="http://www.w3.org/2000/svg" viewBox="0 0 1200 630" width="1200" height="630" role="img" aria-label="NM OnePoint Services — one point for business and technical solutions">
  <title>NM OnePoint Services social preview</title>
  <rect x="0" y="0" width="1200" height="630" fill="#0e2a47"/>
  <g stroke="#ffffff" stroke-opacity="0.06" stroke-width="1">
    <path d="M0 105h1200M0 210h1200M0 315h1200M0 420h1200M0 525h1200M150 0v630M300 0v630M450 0v630M600 0v630M750 0v630M900 0v630M1050 0v630"/>
  </g>
  <rect x="0" y="0" width="1200" height="630" fill="none" stroke="#0a1f36" stroke-width="8"/>
  <!-- Brand block -->
  <g>
    <rect x="80" y="120" width="96" height="96" rx="20" fill="#f4f6f9"/>
    <rect x="80" y="120" width="96" height="96" rx="20" fill="none" stroke="#0a1f36" stroke-opacity="0.15" stroke-width="2"/>
    <circle cx="153" cy="142" r="7" fill="#0f766e"/>
    <text x="128" y="188" font-family="Arial, Helvetica, sans-serif" font-size="44" font-weight="bold" fill="#0e2a47" text-anchor="middle">NP</text>
    <rect x="100" y="196" width="56" height="8" rx="4" fill="#0f766e"/>
    <text x="200" y="160" font-family="Arial, Helvetica, sans-serif" font-size="58" font-weight="bold" fill="#f4f6f9">NM OnePoint</text>
    <text x="202" y="196" font-family="Arial, Helvetica, sans-serif" font-size="24" font-weight="bold" letter-spacing="8" fill="#2dd4bf">SERVICES</text>
  </g>
  <text x="82" y="290" font-family="Arial, Helvetica, sans-serif" font-size="34" fill="#f4f6f9">One point for business and</text>
  <text x="82" y="332" font-family="Arial, Helvetica, sans-serif" font-size="34" fill="#f4f6f9">technical solutions.</text>
  <text x="82" y="372" font-family="Arial, Helvetica, sans-serif" font-size="22" fill="#9fb0c3">Business &#183; Tax &#183; IT &#183; BIM &#183; GIS</text>
  <g font-family="Arial, Helvetica, sans-serif" font-size="20" fill="#e8eef5">
    <rect x="82" y="410" width="118" height="44" rx="22" fill="none" stroke="#2dd4bf" stroke-opacity="0.7" stroke-width="2"/>
    <text x="141" y="438" text-anchor="middle">Business</text>
    <rect x="212" y="410" width="76" height="44" rx="22" fill="none" stroke="#ffffff" stroke-opacity="0.35" stroke-width="2"/>
    <text x="250" y="438" text-anchor="middle">Tax</text>
    <rect x="300" y="410" width="62" height="44" rx="22" fill="none" stroke="#ffffff" stroke-opacity="0.35" stroke-width="2"/>
    <text x="331" y="438" text-anchor="middle">IT</text>
    <rect x="374" y="410" width="82" height="44" rx="22" fill="none" stroke="#ffffff" stroke-opacity="0.35" stroke-width="2"/>
    <text x="415" y="438" text-anchor="middle">BIM</text>
    <rect x="468" y="410" width="76" height="44" rx="22" fill="none" stroke="#ffffff" stroke-opacity="0.35" stroke-width="2"/>
    <text x="506" y="438" text-anchor="middle">GIS</text>
  </g>
  <!-- Abstract technical graphic: building wireframe + map contours -->
  <g>
    <rect x="720" y="90" width="400" height="450" rx="20" fill="#ffffff" fill-opacity="0.04" stroke="#ffffff" stroke-opacity="0.2" stroke-width="2"/>
    <g fill="none" stroke="#2dd4bf" stroke-width="3" stroke-opacity="0.9">
      <path d="M790 420l90-46 90 46-90 46z"/>
      <path d="M790 420v-70l90-46v70z"/>
      <path d="M970 420v-70l-90-46v70" stroke-opacity="0.55"/>
      <path d="M810 350l70-36 70 36" stroke-opacity="0.5"/>
    </g>
    <g fill="none" stroke="#f4f6f9" stroke-opacity="0.4" stroke-width="2">
      <path d="M790 470c30-12 60-12 90 0s60 12 90 0"/>
      <path d="M790 492c30-12 60-12 90 0s60 12 90 0" stroke-opacity="0.6"/>
      <path d="M790 448c30-12 60-12 90 0s60 12 90 0" stroke-opacity="0.35"/>
    </g>
    <g fill="none" stroke="#2dd4bf" stroke-opacity="0.5" stroke-width="2">
      <circle cx="1020" cy="180" r="26"/>
      <circle cx="1020" cy="180" r="14" stroke-opacity="0.7"/>
      <circle cx="1020" cy="180" r="4" fill="#2dd4bf" stroke="none" fill-opacity="0.9"/>
    </g>
    <g font-family="Arial, Helvetica, sans-serif" font-size="17" fill="#9fb0c3">
      <text x="790" y="150">Scan to BIM</text>
      <text x="790" y="176" fill="#e8eef5" fill-opacity="0.85">Revit &#183; QGIS / ArcGIS</text>
    </g>
  </g>
  <rect x="82" y="500" width="120" height="6" rx="3" fill="#14b8a6"/>
</svg>
